<svg enable-background="new 0 0 76.00 76.00" height="76" viewBox="0 0 76 76" width="76" xmlns="http://www.w3.org/2000/svg"><g stroke-linejoin="round" stroke-width=".2"><path d="m38 33c9.384 0 16.9921-2.0126 17-4.4961v23.9961c0 2.4853-7.6112 4.5-17 4.5v-7.8421l.0675.0021 1.1625 1.2537c.3733.3892.7571.728 1.1513 1.0163.3941.2883.8062.5154 1.2362.6813.43.1658.9008.2487 1.4125.2487l1.0775-.0687.6925-.1363v-2.07l-.2575.0813-.2925.0625-.3013.0387-.2737.0125-.8513-.065-.7624-.2337-.7376-.46-.7737-.7438c1.085-.3883 1.9308-1.0575 2.5375-2.0075.6083-.96.9125-2.1067.9125-3.44 0-1.7067-.4975-3.0792-1.4925-4.1175-.99-1.0483-2.2842-1.5725-3.8825-1.5725l-.625.0253zm14-9.5h3v2c0 2.4853-7.6112 4.5-17 4.5v-5c7.732 0 14-.6715 14-1.5zm-13.4625 16.38c.86 0 1.5325.3192 2.0175.9575.4833.6283.725 1.5025.725 2.6225 0 1.08-.2525 1.9292-.7575 2.5475-.4983.6083-1.1808.9125-2.0475.9125l-.475-.0363v-6.9586zm13.9425 9.12v-2.08h-4.16v-9.12h-2.56v11.2z" fill-opacity=".701961"/><path d="m38 57c-9.3889 0-17-2.0147-17-4.5v-24c0 2.4853 7.6112 4.5 17 4.5v4.6436c-1.4391.1153-2.6124.6524-3.52 1.6113-1.0267 1.085-1.54 2.5117-1.54 4.28 0 .7734.1216 1.4975.365 2.1725.2433.675.5879 1.263 1.0337 1.7638.4459.5008.9829.8991 1.6113 1.195.6154.2897 1.2987.4472 2.05.4723zm17-33.5h-3c0-.8284-6.268-1.5-14-1.5s-14 .6716-14 1.5c0 .8285 6.268 1.5 14 1.5v5c-9.3889 0-17-2.0147-17-4.5v-2c0-2.4852 7.6112-4.5 17-4.5 9.384 0 16.9921 2.0127 17 4.5zm-30.86 25.0324c.4083.2017.8912.3534 1.4487.455.5575.1017 1.1454.1525 1.7638.1525.6016 0 1.1733-.057 1.715-.1712.5416-.1142 1.0166-.3021 1.425-.5638.4083-.2616.7316-.6033.97-1.025.2383-.4216.3575-.9433.3575-1.565 0-.45-.0667-.8445-.2-1.1837-.1334-.3392-.3259-.6408-.5775-.905-.2517-.2642-.5534-.5013-.905-.7113l-1.19-.595-.87-.3912-.655-.3888-.4163-.4187c-.0975-.1475-.1462-.3146-.1462-.5013 0-.1783.0437-.3395.1312-.4837l.37-.3713.5863-.24.77-.085.6525.0475.69.1475.675.2525.605.3525v-2.2975c-.38-.1433-.7955-.2495-1.2463-.3187l-1.5512-.1038c-.595 0-1.1584.0634-1.69.19-.5317.1267-.9996.325-1.4038.595s-.7233.6134-.9575 1.03c-.2342.4167-.3512.915-.3512 1.495 0 .74.2116 1.3717.635 1.895.4233.5234 1.0666.9659 1.93 1.3275l.9462.4125.7588.42.505.4738c.1233.1708.185.3646.185.5812l-.1163.4675c-.0775.1434-.1954.268-.3537.3738l-.5913.2487-.8287.09c-.5384 0-1.0717-.0933-1.6-.28-.5284-.1866-1.0184-.4666-1.47-.84zm12.2925-7.7c.4124-.5142.9349-.8245 1.5675-.9308v6.9651c-.6317-.0958-1.1567-.3989-1.575-.9093-.51-.6333-.765-1.4875-.765-2.5625 0-1.065.2575-1.9191.7725-2.5625z"/></g></svg>